<svg width="250" height="250" viewBox="0 0 250 250" fill="none" xmlns="http://www.w3.org/2000/svg">
<g id="material-symbols:circle-outline">
<path id="Vector" d="M125 229.167C110.59 229.167 97.0487 226.431 84.3751 220.958C71.7015 215.486 60.6771 208.066 51.3021 198.698C41.9271 189.33 34.507 178.306 29.0417 165.625C23.5764 152.944 20.8403 139.403 20.8334 125C20.8264 110.597 23.5626 97.0555 29.0417 84.375C34.5209 71.6944 41.941 60.6701 51.3021 51.3021C60.6632 41.934 71.6876 34.5139 84.3751 29.0416C97.0626 23.5694 110.604 20.8333 125 20.8333C139.396 20.8333 152.938 23.5694 165.625 29.0416C178.313 34.5139 189.337 41.934 198.698 51.3021C208.059 60.6701 215.483 71.6944 220.969 84.375C226.455 97.0555 229.188 110.597 229.167 125C229.146 139.403 226.41 152.944 220.958 165.625C215.507 178.306 208.087 189.33 198.698 198.698C189.309 208.066 178.285 215.49 165.625 220.969C152.965 226.448 139.424 229.181 125 229.167ZM125 208.333C148.264 208.333 167.969 200.26 184.115 184.115C200.26 167.969 208.333 148.264 208.333 125C208.333 101.736 200.26 82.0312 184.115 65.8854C167.969 49.7396 148.264 41.6666 125 41.6666C101.736 41.6666 82.0313 49.7396 65.8855 65.8854C49.7396 82.0312 41.6667 101.736 41.6667 125C41.6667 148.264 49.7396 167.969 65.8855 184.115C82.0313 200.26 101.736 208.333 125 208.333Z" fill="#F10000"/>
</g>
</svg>
